:SAMPLES-PER-SECOND 30
:FULLY-SPECIFIED
:DEGREES
560
root  57.2718 37.9496 4.83846 152.797 88.4623 155.848
RightUpLeg  -17.2245 -10.0337 -1.29173
RightLeg  28.074 6.46222 3.49659
RightFoot  -4.54601 0.256915 -4.81466
RightToes  -1.33073e-015 0 -3.6325e-017
Spine  21.9666 -1.34546 8.00084
Spine1  9.9838 2.27322 -8.25177
HEad  -15.0362 -2.23077 -4.31538
LeftShoulder1  1.52472 -4.21486 -12.7098
LeftArm  -22.5015 -68.5016 -34.7047
LeftForeArm  -0.437152 -17.8619 -3.67786
LeftHand  -0.0244291 5.39283 4.55973
RightShoulder  0.962653 3.54226 5.94774
RightArm  -30.6177 67.1432 15.2949
RightForeArm  -33.6884 2.59493 1.07679
RightHand  -0.870728 6.62774 -8.73204
LeftUpLeg  -19.5645 3.5257 0.771934
LeftLeg  17.189 -7.79388 -2.37547
LeftFoot  6.01414 -0.206201 1.11756
LeftToes  -1.93726e-010 2.42366e-011 2.16268e-013
561
root  57.6777 37.8078 4.62888 95.9269 89.1554 98.16
RightUpLeg  -19.3312 -11.0113 -1.76274
RightLeg  31.3734 8.0955 5.07323
RightFoot  -5.14304 0.145784 -3.33531
RightToes  -1.33073e-015 0 -3.6325e-017
Spine  23.3926 -0.88136 6.83148
Spine1  8.16385 2.42959 -7.94267
HEad  -15.7531 -1.50621 -4.66336
LeftShoulder1  1.60204 -5.00298 -11.6922
LeftArm  -24.9647 -68.8159 -33.1629
LeftForeArm  -2.61757 -16.7848 -3.17042
LeftHand  0.00535174 6.32428 4.27426
RightShoulder  0.969915 4.00207 5.10162
RightArm  -31.8468 67.8067 13.4038
RightForeArm  -35.2044 0.337754 1.11694
RightHand  -0.74085 6.28225 -7.61362
LeftUpLeg  -21.1134 4.60992 0.382218
LeftLeg  19.9948 -7.28505 -2.60782
LeftFoot  4.8896 -0.228376 1.39736
LeftToes  -1.93726e-010 2.42366e-011 2.16268e-013
562
root  58.0383 37.7564 4.40303 34.119 88.3046 35.6608
RightUpLeg  -21.8617 -12.5727 -2.44004
RightLeg  35.5242 10.7602 7.91865
RightFoot  -4.22808 0.035768 -1.08294
RightToes  -1.33073e-015 0 -3.6325e-017
Spine  24.5244 -0.724883 6.40691
Spine1  7.43645 2.8218 -8.88302
HEad  -16.968 -1.00917 -4.62897
LeftShoulder1  1.60024 -5.45616 -10.6091
LeftArm  -27.34 -69.6573 -30.3931
LeftForeArm  -5.5115 -15.7843 -2.81064
LeftHand  0.0264958 7.14748 3.9468
RightShoulder  0.931893 4.27197 4.04405
RightArm  -34.6347 67.4556 13.2181
RightForeArm  -33.2912 0.12809 -0.0825204
RightHand  -0.464752 5.22211 -5.4332
LeftUpLeg  -21.863 5.77122 -0.0938481
LeftLeg  21.4453 -6.92734 -2.66017
LeftFoot  4.11117 -0.355803 2.43661
LeftToes  -1.93726e-010 2.42366e-011 2.16268e-013
563
root  58.3263 37.7176 4.12992 22.9916 86.4727 23.6582
RightUpLeg  -25.0174 -13.3085 -3.63726
RightLeg  39.9293 13.3945 11.5126
RightFoot  -2.33863 -0.268864 3.08242
RightToes  -1.33073e-015 0 -3.6325e-017
Spine  25.4562 -0.436533 5.62122
Spine1  7.05112 3.33951 -9.81379
HEad  -18.1004 -0.272212 -5.09057
LeftShoulder1  1.58933 -5.58832 -10.189
LeftArm  -29.7356 -70.6675 -26.7057
LeftForeArm  -8.69045 -14.3061 -2.44953
LeftHand  0.00620033 6.95856 3.01823
RightShoulder  0.847157 4.42577 2.55478
RightArm  -35.9168 68.7609 10.2322
RightForeArm  -39.2925 -2.32235 0.621544
RightHand  -0.513529 7.03817 -5.12468
LeftUpLeg  -22.6711 6.41564 -0.780462
LeftLeg  22.4417 -5.55103 -2.17821
LeftFoot  3.14057 -0.39012 2.91905
LeftToes  -1.93726e-010 2.42366e-011 2.16268e-013
564
root  58.564 37.5925 3.92931 19.246 84.8329 19.5953
RightUpLeg  -27.1468 -12.8454 -5.33091
RightLeg  43.6665 15.8227 15.3169
RightFoot  -2.10722 -0.881278 11.0682
RightToes  -1.33073e-015 0 -3.6325e-017
Spine  26.3002 -0.175703 4.41769
Spine1  7.4971 3.65154 -10.3062
HEad  -20.1942 0.493827 -6.13516
LeftShoulder1  1.46699 -5.33036 -9.21196
LeftArm  -32.8618 -71.2763 -22.488
LeftForeArm  -12.1507 -13.5643 -2.2466
LeftHand  -0.00182183 7.35187 2.07112
RightShoulder  0.792238 4.22089 2.07532
RightArm  -39.6634 70.2882 7.05687
RightForeArm  -40.7408 -3.20459 0.443983
RightHand  -0.408878 6.79131 -4.24429
LeftUpLeg  -23.4395 7.80782 -1.31733
LeftLeg  24.3015 -5.2381 -2.23892
LeftFoot  1.82509 -0.385111 3.24288
LeftToes  -1.93726e-010 2.42366e-011 2.16268e-013
565
root  58.7626 37.4892 3.7997 19.1399 83.9518 19.0599
RightUpLeg  -27.9413 -10.6835 -7.28978
RightLeg  44.3485 17.1067 16.8742
RightFoot  -4.27496 -1.10557 17.1154
RightToes  -1.33073e-015 0 -3.6325e-017
Spine  27.0839 -0.284423 3.63922
Spine1  7.81846 3.74109 -11.232
HEad  -21.714 0.970943 -6.60096
LeftShoulder1  1.33014 -5.06781 -8.00054
LeftArm  -36.2648 -71.5474 -18.7562
LeftForeArm  -14.331 -13.718 -2.08531
LeftHand  -0.00356673 7.74865 1.78172
RightShoulder  0.765826 3.92806 2.12646
RightArm  -43.8961 71.5907 2.84346
RightForeArm  -42.3531 -3.71192 0.378866
RightHand  -0.360811 7.1581 -3.68088
LeftUpLeg  -24.2253 8.78744 -1.76944
LeftLeg  25.6776 -5.38566 -2.46279
LeftFoot  0.880261 -0.398674 3.67054
LeftToes  -1.93726e-010 2.42366e-011 2.16268e-013
566
root  58.983 37.5876 3.66296 14.2073 83.6368 13.4429
RightUpLeg  -27.7469 -7.96123 -8.66937
RightLeg  41.3386 15.3957 13.8579
RightFoot  -4.30929 -0.921494 14.4177
RightToes  -1.33073e-015 0 -3.6325e-017
Spine  27.3445 -0.493299 4.22406
Spine1  8.21265 3.70179 -11.2706
HEad  -22.0616 1.30511 -7.09645
LeftShoulder1  1.28813 -5.03818 -7.52111
LeftArm  -38.5712 -71.1602 -16.6376
LeftForeArm  -14.6828 -14.9703 -2.32201
LeftHand  -0.0206706 7.77266 0.984523
RightShoulder  0.731367 3.80977 1.78333
RightArm  -47.4047 71.9505 0.357875
RightForeArm  -42.0341 -3.14286 -0.111972
RightHand  -0.25762 6.66344 -2.82753
LeftUpLeg  -24.4128 8.98137 -1.50581
LeftLeg  25.3975 -5.16314 -2.31819
LeftFoot  0.715145 -0.414849 3.8853
LeftToes  -1.93726e-010 2.42366e-011 2.16268e-013
567
root  59.1599 37.7125 3.60772 11.3871 83.6608 9.81994
RightUpLeg  -26.9825 -4.3916 -10.3284
RightLeg  36.0308 11.249 8.45222
RightFoot  -3.77503 -0.686788 10.0308
RightToes  -1.33073e-015 0 -3.6325e-017
Spine  27.8039 -0.834219 5.03293
Spine1  7.75863 3.70178 -12.0112
HEad  -21.6713 2.01908 -6.99606
LeftShoulder1  1.26482 -5.44554 -6.44105
LeftArm  -39.4318 -70.3786 -16.6042
LeftForeArm  -14.2306 -16.6609 -2.81184
LeftHand  -0.0274222 7.64849 0.702872
RightShoulder  0.733331 3.65903 2.05244
RightArm  -48.4646 71.8592 -0.848628
RightForeArm  -40.5254 -2.33016 -0.18092
RightHand  -0.193209 6.51786 -2.22265
LeftUpLeg  -24.6204 8.75189 -1.27043
LeftLeg  24.6499 -4.9656 -2.13734
LeftFoot  1.01467 -0.447589 4.07608
LeftToes  -1.93726e-010 2.42366e-011 2.16268e-013
